<svg xmlns="http://www.w3.org/2000/svg" width="65.91" height="59.128" viewBox="0 0 65.91 59.128">
  <path id="bbb" d="M23.766,35.449q0,5.453-2.5,8.763t-6.728,3.316q-4.51,0-6.976-3.185l-.2,2.751-3.744,0V13.283l4.074.005V25.9q2.465-3.058,6.8-3.055t6.8,3.281Q23.766,29.4,23.766,35.1ZM19.7,34.988q0-4.156-1.6-6.422T13.478,26.3q-4.027,0-5.788,3.739v10.3q1.871,3.74,5.832,3.737,2.925,0,4.552-2.269T19.7,34.988Zm23.883.458q0,5.445-2.5,8.752t-6.71,3.311q-4.5,0-6.958-3.181l-.2,2.748-3.734,0V13.309l4.063.005V25.909q2.459-3.054,6.782-3.051t6.787,3.277q2.466,3.273,2.466,8.96Zm-4.055-.461q0-4.151-1.6-6.414t-4.606-2.264q-4.016,0-5.773,3.734V40.328q1.866,3.735,5.817,3.733,2.918,0,4.541-2.266T39.529,34.986Zm23.821.458q0,5.438-2.492,8.741t-6.693,3.307q-4.487,0-6.94-3.177l-.2,2.744-3.724,0V13.335l4.053.005V25.918q2.453-3.05,6.765-3.047t6.769,3.272q2.459,3.269,2.459,8.948Zm-4.044-.46q0-4.146-1.6-6.405t-4.594-2.262q-4.006,0-5.758,3.729V40.319q1.861,3.731,5.8,3.728,2.91,0,4.529-2.263T59.306,34.983Z" fill="#fff"/>
</svg>
