<svg xmlns="http://www.w3.org/2000/svg" width="65.772" height="59.253" viewBox="0 0 65.772 59.253">
  <path id="bbb" d="M23.717,35.478q0,5.453-2.5,8.773T14.5,47.595q-4.5.023-6.961-3.156l-.2,2.752-3.736.019V13.394l4.065-.011V25.994q2.46-3.068,6.786-3.082t6.79,3.253q2.467,3.267,2.467,8.961Zm-4.057-.445q0-4.156-1.6-6.416T13.45,26.369q-4.018.015-5.776,3.762v10.3q1.867,3.733,5.82,3.714,2.919-.014,4.543-2.287T19.66,35.033Zm23.833.361q0,5.445-2.493,8.762T34.3,47.5q-4.489.023-6.943-3.152l-.2,2.749-3.726.019V13.339l4.055-.011V25.923q2.454-3.064,6.768-3.078t6.773,3.249q2.46,3.263,2.46,8.95Zm-4.046-.444q0-4.151-1.6-6.407t-4.6-2.246q-4.008.015-5.761,3.758V40.342q1.862,3.728,5.8,3.709,2.912-.014,4.531-2.284T39.447,34.95Zm23.771.361q0,5.438-2.487,8.751T54.052,47.4q-4.478.022-6.925-3.148l-.2,2.745-3.716.019V13.284l4.044-.011V25.851q2.447-3.06,6.75-3.074t6.755,3.245q2.454,3.259,2.454,8.938Zm-4.036-.444q0-4.146-1.593-6.4T53,26.226q-4,.014-5.746,3.753V40.252q1.857,3.723,5.79,3.7,2.9-.014,4.519-2.281T59.182,34.868Z" fill="#fff"/>
</svg>
