<svg xmlns="http://www.w3.org/2000/svg" width="51.929" height="46.078" viewBox="0 0 51.929 46.078">
  <path id="bbb" d="M18.808,28q0,4.24-1.948,6.815t-5.23,2.578q-3.506,0-5.422-2.476l-.154,2.139-2.909,0V10.771l3.166,0v9.805Q8.226,18.2,11.6,18.2t5.29,2.55q1.922,2.548,1.922,6.976Zm-3.161-.358q0-3.232-1.248-4.994t-3.59-1.762q-3.13,0-4.5,2.908V31.8q1.454,2.908,4.533,2.906,2.274,0,3.539-1.764T15.647,27.643ZM34.222,28q0,4.236-1.944,6.808t-5.22,2.576q-3.5,0-5.411-2.474l-.154,2.137-2.9,0V10.783l3.16,0v9.8q1.912-2.376,5.275-2.374t5.28,2.547q1.918,2.545,1.918,6.969Zm-3.155-.358q0-3.229-1.245-4.989t-3.583-1.76q-3.124,0-4.49,2.905v8q1.451,2.9,4.524,2.9,2.269,0,3.532-1.763T31.067,27.638Zm18.538.353q0,4.232-1.94,6.8t-5.209,2.573q-3.492,0-5.4-2.471L36.9,37.029l-2.9,0V10.8l3.153,0v9.785q1.908-2.373,5.264-2.372t5.269,2.544Q49.6,23.3,49.6,27.718Zm-3.148-.357q0-3.226-1.243-4.984t-3.576-1.759q-3.117,0-4.481,2.9v7.992q1.448,2.9,4.515,2.9,2.265,0,3.525-1.761T46.456,27.634Z" fill="#fff"/>
</svg>
