<svg xmlns="http://www.w3.org/2000/svg" width="39.321" height="38.564" viewBox="0 0 39.321 38.564">
  <g id="그룹_8" data-name="그룹 8" transform="translate(-7)">
    <path id="패스_14" data-name="패스 14" d="M1.358,49.318h3.2v14.09a1.45,1.45,0,0,0,1.373,1.51h9.38a1.45,1.45,0,0,0,1.373-1.51V53.092h5.719V63.408a1.45,1.45,0,0,0,1.373,1.51H32.7a1.45,1.45,0,0,0,1.373-1.51V49.318h3.889a1.379,1.379,0,0,0,1.258-.931,1.63,1.63,0,0,0-.3-1.635L21.033,26.8a1.281,1.281,0,0,0-1.922-.025L.42,46.727A1.62,1.62,0,0,0,.1,48.387,1.345,1.345,0,0,0,1.358,49.318ZM20.026,30,34.668,46.3H32.7a1.45,1.45,0,0,0-1.373,1.51V61.9H25.151V51.583a1.45,1.45,0,0,0-1.373-1.51H15.314a1.45,1.45,0,0,0-1.373,1.51V61.9H7.306V47.809A1.45,1.45,0,0,0,5.934,46.3H4.744Z" transform="translate(7 -26.353)" fill="#fff"/>
  </g>
</svg>
