<svg xmlns="http://www.w3.org/2000/svg" width="33.064" height="33" viewBox="0 0 33.064 33">
  <path id="user" d="M31.11,28.336a29.237,29.237,0,0,0-9.273-3.7,22.691,22.691,0,0,0,3.811-8.169c.754-3.128.461-9.248-2.543-13.062A8.743,8.743,0,0,0,16,0,8.742,8.742,0,0,0,8.9,3.406c-3,3.813-3.3,9.933-2.543,13.061a22.674,22.674,0,0,0,3.811,8.169,29.212,29.212,0,0,0-9.272,3.7A2,2,0,0,0,2,32H30a2,2,0,0,0,1.11-3.664ZM20.267,23.4l-.326.414c-2.385,2.74-5.495,2.74-7.879,0l-.327-.414a17.094,17.094,0,0,1-3.572-12.65C8.708,6.469,11.16,2,16,2s7.293,4.47,7.838,8.749A17.091,17.091,0,0,1,20.267,23.4ZM2,30a27.2,27.2,0,0,1,8.586-3.408l2.484-.537A5.293,5.293,0,0,0,16,27a5.29,5.29,0,0,0,2.93-.945l2.484.537A27.284,27.284,0,0,1,30,30Z" transform="translate(0.531 0.5)" fill="#fff" stroke="#fff" stroke-width="1"/>
</svg>
