<svg xmlns="http://www.w3.org/2000/svg" width="40" height="40" viewBox="0 0 40 40">
  <path id="패스_111" data-name="패스 111" d="M34.973,26.111a15.28,15.28,0,0,0,4.28-10.557A15.818,15.818,0,0,0,23.221,0,15.818,15.818,0,0,0,7.19,15.554,15.818,15.818,0,0,0,23.221,31.109a16.276,16.276,0,0,0,9.6-3.1L44.742,39.578A1.454,1.454,0,0,0,45.757,40a1.419,1.419,0,0,0,1.016-2.416ZM10.092,15.554A12.951,12.951,0,0,1,23.221,2.815a12.951,12.951,0,0,1,13.13,12.739,12.936,12.936,0,0,1-13.13,12.739A12.951,12.951,0,0,1,10.092,15.554Z" transform="translate(-7.19)" fill="#fff"/>
</svg>
